999
dxfrw 0.6.3
  0
SECTION
  2
HEADER
  9
$ACADVER
  1
AC1021
  9
$DWGCODEPAGE
  3
ANSI_1252
  9
$INSBASE
 10
0
 20
0
 30
0
  9
$EXTMIN
 10
10000000000
 20
10000000000
 30
0
  9
$EXTMAX
 10
-10000000000
 20
-10000000000
 30
0
  9
$LIMMIN
 10
0
 20
0
  9
$LIMMAX
 10
420
 20
297
  9
$ORTHOMODE
 70
    0
  9
$REGENMODE
 70
    1
  9
$FILLMODE
 70
    1
  9
$QTEXTMODE
 70
    0
  9
$MIRRTEXT
 70
    0
  9
$LTSCALE
 40
1
  9
$ATTMODE
 70
    0
  9
$TEXTSIZE
 40
2.5
  9
$TRACEWID
 40
15.68
  9
$TEXTSTYLE
  7
STANDARD
  9
$CLAYER
  8
0
  9
$CELTYPE
  6
BYLAYER
  9
$CECOLOR
 62
  256
  9
$CELTSCALE
 40
1
  9
$DISPSILH
 70
    0
  9
$DIMSCALE
 40
2.5
  9
$DIMASZ
 40
2.5
  9
$DIMEXO
 40
0.625
  9
$DIMDLI
 40
3.75
  9
$DIMRND
 40
0
  9
$DIMDLE
 40
0
  9
$DIMEXE
 40
1.25
  9
$DIMTP
 40
0
  9
$DIMTM
 40
0
  9
$DIMTXT
 40
2.5
  9
$DIMCEN
 40
2.5
  9
$DIMTSZ
 40
0
  9
$DIMTOL
 70
    0
  9
$DIMLIM
 70
    0
  9
$DIMTIH
 70
    0
  9
$DIMTOH
 70
    0
  9
$DIMSE1
 70
    0
  9
$DIMSE2
 70
    0
  9
$DIMTAD
 70
    1
  9
$DIMZIN
 70
    8
  9
$DIMBLK
  1

  9
$DIMASO
 70
    1
  9
$DIMSHO
 70
    1
  9
$DIMPOST
  1

  9
$DIMAPOST
  1

  9
$DIMALT
 70
    0
  9
$DIMALTD
 70
    3
  9
$DIMALTF
 40
0.03937
  9
$DIMLFAC
 40
1
  9
$DIMTOFL
 70
    1
  9
$DIMTVP
 40
0
  9
$DIMTIX
 70
    0
  9
$DIMSOXD
 70
    0
  9
$DIMSAH
 70
    0
  9
$DIMBLK1
  1

  9
$DIMBLK2
  1

  9
$DIMSTYLE
  2
Standard
  9
$DIMCLRD
 70
    0
  9
$DIMCLRE
 70
    0
  9
$DIMCLRT
 70
    0
  9
$DIMTFAC
 40
1
  9
$DIMGAP
 40
0.625
  9
$DIMJUST
 70
    0
  9
$DIMSD1
 70
    0
  9
$DIMSD2
 70
    0
  9
$DIMTOLJ
 70
    0
  9
$DIMTZIN
 70
    8
  9
$DIMALTZ
 70
    0
  9
$DIMALTTZ
 70
    0
  9
$DIMUPT
 70
    0
  9
$DIMDEC
 70
    2
  9
$DIMTDEC
 70
    2
  9
$DIMALTU
 70
    2
  9
$DIMALTTD
 70
    3
  9
$DIMTXSTY
  7
STANDARD
  9
$DIMAUNIT
 70
    0
  9
$DIMADEC
 70
    0
  9
$DIMALTRND
 40
0
  9
$DIMAZIN
 70
    0
  9
$DIMDSEP
 70
   44
  9
$DIMATFIT
 70
    3
  9
$DIMFRAC
 70
    0
  9
$DIMLDRBLK
  1
STANDARD
  9
$DIMLUNIT
 70
    2
  9
$DIMLWD
 70
   -2
  9
$DIMLWE
 70
   -2
  9
$DIMTMOVE
 70
    0
  9
$DIMFXL
 40
1
  9
$DIMFXLON
 70
    0
  9
$DIMJOGANG
 40
0.7854
  9
$DIMTFILL
 70
    0
  9
$DIMTFILLCLR
 70
    0
  9
$DIMARCSYM
 70
    0
  9
$DIMLTYPE
  6

  9
$DIMLTEX1
  6

  9
$DIMLTEX2
  6

  9
$LUNITS
 70
    2
  9
$LUPREC
 70
    4
  9
$SKETCHINC
 40
1
  9
$FILLETRAD
 40
0
  9
$AUNITS
 70
    0
  9
$AUPREC
 70
    2
  9
$MENU
  1
.
  9
$ELEVATION
 40
0
  9
$PELEVATION
 40
0
  9
$THICKNESS
 40
0
  9
$LIMCHECK
 70
    0
  9
$CHAMFERA
 40
0
  9
$CHAMFERB
 40
0
  9
$CHAMFERC
 40
0
  9
$CHAMFERD
 40
0
  9
$SKPOLY
 70
    0
  9
$USRTIMER
 70
    1
  9
$ANGBASE
 50
0
  9
$ANGDIR
 70
    0
  9
$PDMODE
 70
   34
  9
$PDSIZE
 40
0
  9
$PLINEWID
 40
0
  9
$SPLFRAME
 70
    0
  9
$SPLINETYPE
 70
    2
  9
$SPLINESEGS
 70
    8
  9
$HANDSEED
  5
20000
  9
$SURFTAB1
 70
    6
  9
$SURFTAB2
 70
    6
  9
$SURFTYPE
 70
    6
  9
$SURFU
 70
    6
  9
$SURFV
 70
    6
  9
$UCSBASE
  2

  9
$UCSNAME
  2

  9
$UCSORG
 10
0
 20
0
 30
0
  9
$UCSXDIR
 10
1
 20
0
 30
0
  9
$UCSYDIR
 10
0
 20
1
 30
0
  9
$UCSORTHOREF
  2

  9
$UCSORTHOVIEW
 70
    0
  9
$UCSORGTOP
 10
0
 20
0
 30
0
  9
$UCSORGBOTTOM
 10
0
 20
0
 30
0
  9
$UCSORGLEFT
 10
0
 20
0
 30
0
  9
$UCSORGRIGHT
 10
0
 20
0
 30
0
  9
$UCSORGFRONT
 10
0
 20
0
 30
0
  9
$UCSORGBACK
 10
0
 20
0
 30
0
  9
$PUCSBASE
  2

  9
$PUCSNAME
  2

  9
$PUCSORG
 10
0
 20
0
 30
0
  9
$PUCSXDIR
 10
1
 20
0
 30
0
  9
$PUCSYDIR
 10
0
 20
1
 30
0
  9
$PUCSORTHOREF
  2

  9
$PUCSORTHOVIEW
 70
    0
  9
$PUCSORGTOP
 10
0
 20
0
 30
0
  9
$PUCSORGBOTTOM
 10
0
 20
0
 30
0
  9
$PUCSORGLEFT
 10
0
 20
0
 30
0
  9
$PUCSORGRIGHT
 10
0
 20
0
 30
0
  9
$PUCSORGFRONT
 10
0
 20
0
 30
0
  9
$PUCSORGBACK
 10
0
 20
0
 30
0
  9
$USERI1
 70
    0
  9
$USERI2
 70
    0
  9
$USERI3
 70
    0
  9
$USERI4
 70
    0
  9
$USERI5
 70
    0
  9
$USERR1
 40
0
  9
$USERR2
 40
0
  9
$USERR3
 40
0
  9
$USERR4
 40
0
  9
$USERR5
 40
0
  9
$WORLDVIEW
 70
    1
  9
$SHADEDGE
 70
    3
  9
$SHADEDIF
 70
   70
  9
$TILEMODE
 70
    1
  9
$MAXACTVP
 70
   64
  9
$PINSBASE
 10
0
 20
0
 30
0
  9
$PLIMCHECK
 70
    0
  9
$PEXTMIN
 10
0
 20
0
 30
0
  9
$PEXTMAX
 10
0
 20
0
 30
0
  9
$GRIDMODE
 70
    1
  9
$SNAPSTYLE
 70
    0
  9
$PLIMMIN
 10
0
 20
0
  9
$PLIMMAX
 10
210
 20
297
  9
$UNITMODE
 70
    0
  9
$VISRETAIN
 70
    1
  9
$PLINEGEN
 70
    0
  9
$PSLTSCALE
 70
    1
  9
$TREEDEPTH
 70
 3020
  9
$CMLSTYLE
  2
Standard
  9
$CMLJUST
 70
    0
  9
$CMLSCALE
 40
20
  9
$PROXYGRAPHICS
 70
    1
  9
$MEASUREMENT
 70
    1
  9
$CELWEIGHT
370
   -1
  9
$ENDCAPS
280
    0
  9
$JOINSTYLE
280
    0
  9
$LWDISPLAY
290
    0
  9
$INSUNITS
 70
    4
  9
$HYPERLINKBASE
  1

  9
$STYLESHEET
  1

  9
$XEDIT
290
    1
  9
$CEPSNTYPE
380
    0
  9
$PSTYLEMODE
290
    1
  9
$EXTNAMES
290
    1
  9
$PSVPSCALE
 40
1
  9
$OLESTARTUP
290
    0
  9
$SORTENTS
280
  127
  9
$INDEXCTL
280
    0
  9
$HIDETEXT
280
    1
  9
$XCLIPFRAME
290
    0
  9
$HALOGAP
280
    0
  9
$OBSCOLOR
 70
  257
  9
$OBSLTYPE
280
    0
  9
$INTERSECTIONDISPLAY
280
    0
  9
$INTERSECTIONCOLOR
 70
  257
  9
$DIMASSOC
280
    1
  9
$PROJECTNAME
  1

  9
$CAMERADISPLAY
290
    0
  9
$LENSLENGTH
 40
50
  9
$CAMERAHEIGHT
 40
0
  9
$STEPSPERSEC
 40
2
  9
$STEPSIZE
 40
50
  9
$3DDWFPREC
 40
2
  9
$PSOLWIDTH
 40
5
  9
$PSOLHEIGHT
 40
80
  9
$LOFTANG1
 40
1.570796326794897
  9
$LOFTANG2
 40
1.570796326794897
  9
$LOFTMAG1
 40
0
  9
$LOFTMAG2
 40
0
  9
$LOFTPARAM
 70
    7
  9
$LOFTNORMALS
280
    1
  9
$LATITUDE
 40
1
  9
$LONGITUDE
 40
1
  9
$NORTHDIRECTION
 40
0
  9
$TIMEZONE
 70
-8000
  9
$LIGHTGLYPHDISPLAY
280
    1
  9
$TILEMODELIGHTSYNCH
280
    1
  9
$SOLIDHIST
280
    1
  9
$SHOWHIST
280
    1
  9
$DWFFRAME
280
    2
  9
$DGNFRAME
280
    0
  9
$REALWORLDSCALE
290
    1
  9
$INTERFERECOLOR
 62
    1
  9
$CSHADOW
280
    0
  9
$SHADOWPLANELOCATION
 40
0
  0
ENDSEC
  0
SECTION
  2
CLASSES
  0
ENDSEC
  0
SECTION
  2
TABLES
  0
TABLE
  2
VPORT
  5
8
330
0
100
AcDbSymbolTable
 70
    1
  0
VPORT
  5
31
330
2
100
AcDbSymbolTableRecord
100
AcDbViewportTableRecord
  2
*ACTIVE
 70
    0
 10
0
 20
0
 11
1
 21
1
 12
128.3750000000014
 22
58.12500000000064
 13
0
 23
0
 14
10
 24
10
 15
10
 25
10
 16
0
 26
0
 36
1
 17
0
 27
0
 37
0
 40
218.2500000000024
 41
1.639175257731959
 42
50
 43
0
 44
0
 50
0
 51
0
 71
    0
 72
  100
 73
    1
 74
    3
 75
    0
 76
    1
 77
    0
 78
    0
281
    0
 65
    1
110
0
120
0
130
0
111
1
121
0
131
0
112
0
122
1
132
0
 79
    0
146
0
348
10020
 60
    7
 61
    5
292
1
282
    1
141
0
142
0
 63
  250
421
3358443
  0
ENDTAB
  0
TABLE
  2
LTYPE
  5
5
330
0
100
AcDbSymbolTable
 70
    4
  0
LTYPE
  5
14
330
5
100
AcDbSymbolTableRecord
100
AcDbLinetypeTableRecord
  2
ByBlock
 70
    0
  3

 72
   65
 73
    0
 40
0
  0
LTYPE
  5
15
330
5
100
AcDbSymbolTableRecord
100
AcDbLinetypeTableRecord
  2
ByLayer
 70
    0
  3

 72
   65
 73
    0
 40
0
  0
LTYPE
  5
16
330
5
100
AcDbSymbolTableRecord
100
AcDbLinetypeTableRecord
  2
Continuous
 70
    0
  3
Solid line
 72
   65
 73
    0
 40
0
  0
LTYPE
  5
32
330
5
100
AcDbSymbolTableRecord
100
AcDbLinetypeTableRecord
  2
DOT
 70
    0
  3
Dot . . . . . . . . . . . . . . . . . . . . . .
 72
   65
 73
    2
 40
6.35
 49
0
 74
    0
 49
-6.35
 74
    0
  0
LTYPE
  5
33
330
5
100
AcDbSymbolTableRecord
100
AcDbLinetypeTableRecord
  2
DOTTINY
 70
    0
  3
Dot (.15x) .....................................
 72
   65
 73
    2
 40
0.9525
 49
0
 74
    0
 49
-0.9525
 74
    0
  0
LTYPE
  5
34
330
5
100
AcDbSymbolTableRecord
100
AcDbLinetypeTableRecord
  2
DOT2
 70
    0
  3
Dot (.5x) .....................................
 72
   65
 73
    2
 40
3.175
 49
0
 74
    0
 49
-3.175
 74
    0
  0
LTYPE
  5
35
330
5
100
AcDbSymbolTableRecord
100
AcDbLinetypeTableRecord
  2
DOTX2
 70
    0
  3
Dot (2x) .  .  .  .  .  .  .  .  .  .  .  .  .
 72
   65
 73
    2
 40
12.7
 49
0
 74
    0
 49
-12.7
 74
    0
  0
LTYPE
  5
36
330
5
100
AcDbSymbolTableRecord
100
AcDbLinetypeTableRecord
  2
DASHED
 70
    0
  3
Dashed _ _ _ _ _ _ _ _ _ _ _ _ _ _ _ _ _
 72
   65
 73
    2
 40
19.05
 49
12.7
 74
    0
 49
-6.35
 74
    0
  0
LTYPE
  5
37
330
5
100
AcDbSymbolTableRecord
100
AcDbLinetypeTableRecord
  2
DASHEDTINY
 70
    0
  3
Dashed (.15x) _ _ _ _ _ _ _ _ _ _ _ _ _ _ _ _ _
 72
   65
 73
    2
 40
2.8575
 49
1.905
 74
    0
 49
-0.9525
 74
    0
  0
LTYPE
  5
38
330
5
100
AcDbSymbolTableRecord
100
AcDbLinetypeTableRecord
  2
DASHED2
 70
    0
  3
Dashed (.5x) _ _ _ _ _ _ _ _ _ _ _ _ _ _ _ _ _
 72
   65
 73
    2
 40
9.524999999999999
 49
6.35
 74
    0
 49
-3.175
 74
    0
  0
LTYPE
  5
39
330
5
100
AcDbSymbolTableRecord
100
AcDbLinetypeTableRecord
  2
DASHEDX2
 70
    0
  3
Dashed (2x) ____  ____  ____  ____  ____  ___
 72
   65
 73
    2
 40
38.09999999999999
 49
25.4
 74
    0
 49
-12.7
 74
    0
  0
LTYPE
  5
3A
330
5
100
AcDbSymbolTableRecord
100
AcDbLinetypeTableRecord
  2
DASHDOT
 70
    0
  3
Dash dot __ . __ . __ . __ . __ . __ . __ . __
 72
   65
 73
    4
 40
25.4
 49
12.7
 74
    0
 49
-6.35
 74
    0
 49
0
 74
    0
 49
-6.35
 74
    0
  0
LTYPE
  5
3B
330
5
100
AcDbSymbolTableRecord
100
AcDbLinetypeTableRecord
  2
DASHDOTTINY
 70
    0
  3
Dash dot (.15x) _._._._._._._._._._._._._._._.
 72
   65
 73
    4
 40
3.81
 49
1.905
 74
    0
 49
-0.9525
 74
    0
 49
0
 74
    0
 49
-0.9525
 74
    0
  0
LTYPE
  5
3C
330
5
100
AcDbSymbolTableRecord
100
AcDbLinetypeTableRecord
  2
DASHDOT2
 70
    0
  3
Dash dot (.5x) _._._._._._._._._._._._._._._.
 72
   65
 73
    4
 40
12.7
 49
6.35
 74
    0
 49
-3.175
 74
    0
 49
0
 74
    0
 49
-3.175
 74
    0
  0
LTYPE
  5
3D
330
5
100
AcDbSymbolTableRecord
100
AcDbLinetypeTableRecord
  2
DASHDOTX2
 70
    0
  3
Dash dot (2x) ____  .  ____  .  ____  .  ___
 72
   65
 73
    4
 40
50.8
 49
25.4
 74
    0
 49
-12.7
 74
    0
 49
0
 74
    0
 49
-12.7
 74
    0
  0
LTYPE
  5
3E
330
5
100
AcDbSymbolTableRecord
100
AcDbLinetypeTableRecord
  2
DIVIDE
 70
    0
  3
Divide ____ . . ____ . . ____ . . ____ . . ____
 72
   65
 73
    6
 40
31.75
 49
12.7
 74
    0
 49
-6.35
 74
    0
 49
0
 74
    0
 49
-6.35
 74
    0
 49
0
 74
    0
 49
-6.35
 74
    0
  0
LTYPE
  5
3F
330
5
100
AcDbSymbolTableRecord
100
AcDbLinetypeTableRecord
  2
DIVIDETINY
 70
    0
  3
Divide (.15x) __..__..__..__..__..__..__..__.._
 72
   65
 73
    6
 40
4.7625
 49
1.905
 74
    0
 49
-0.9525
 74
    0
 49
0
 74
    0
 49
-0.9525
 74
    0
 49
0
 74
    0
 49
-0.9525
 74
    0
  0
LTYPE
  5
40
330
5
100
AcDbSymbolTableRecord
100
AcDbLinetypeTableRecord
  2
DIVIDE2
 70
    0
  3
Divide (.5x) __..__..__..__..__..__..__..__.._
 72
   65
 73
    6
 40
15.875
 49
6.35
 74
    0
 49
-3.175
 74
    0
 49
0
 74
    0
 49
-3.175
 74
    0
 49
0
 74
    0
 49
-3.175
 74
    0
  0
LTYPE
  5
41
330
5
100
AcDbSymbolTableRecord
100
AcDbLinetypeTableRecord
  2
DIVIDEX2
 70
    0
  3
Divide (2x) ________  .  .  ________  .  .  _
 72
   65
 73
    6
 40
63.5
 49
25.4
 74
    0
 49
-12.7
 74
    0
 49
0
 74
    0
 49
-12.7
 74
    0
 49
0
 74
    0
 49
-12.7
 74
    0
  0
LTYPE
  5
42
330
5
100
AcDbSymbolTableRecord
100
AcDbLinetypeTableRecord
  2
BORDER
 70
    0
  3
Border __ __ . __ __ . __ __ . __ __ . __ __ .
 72
   65
 73
    6
 40
44.45
 49
12.7
 74
    0
 49
-6.35
 74
    0
 49
12.7
 74
    0
 49
-6.35
 74
    0
 49
0
 74
    0
 49
-6.35
 74
    0
  0
LTYPE
  5
43
330
5
100
AcDbSymbolTableRecord
100
AcDbLinetypeTableRecord
  2
BORDERTINY
 70
    0
  3
Border (.15x) __.__.__.__.__.__.__.__.__.__.__.
 72
   65
 73
    6
 40
6.6675
 49
1.905
 74
    0
 49
-0.9525
 74
    0
 49
1.905
 74
    0
 49
-0.9525
 74
    0
 49
0
 74
    0
 49
-0.9525
 74
    0
  0
LTYPE
  5
44
330
5
100
AcDbSymbolTableRecord
100
AcDbLinetypeTableRecord
  2
BORDER2
 70
    0
  3
Border (.5x) __.__.__.__.__.__.__.__.__.__.__.
 72
   65
 73
    6
 40
22.225
 49
6.35
 74
    0
 49
-3.175
 74
    0
 49
6.35
 74
    0
 49
-3.175
 74
    0
 49
0
 74
    0
 49
-3.175
 74
    0
  0
LTYPE
  5
45
330
5
100
AcDbSymbolTableRecord
100
AcDbLinetypeTableRecord
  2
BORDERX2
 70
    0
  3
Border (2x) ____  ____  .  ____  ____  .  ___
 72
   65
 73
    6
 40
88.89999999999999
 49
25.4
 74
    0
 49
-12.7
 74
    0
 49
25.4
 74
    0
 49
-12.7
 74
    0
 49
0
 74
    0
 49
-12.7
 74
    0
  0
LTYPE
  5
46
330
5
100
AcDbSymbolTableRecord
100
AcDbLinetypeTableRecord
  2
CENTER
 70
    0
  3
Center ____ _ ____ _ ____ _ ____ _ ____ _ ____
 72
   65
 73
    4
 40
50.8
 49
31.75
 74
    0
 49
-6.35
 74
    0
 49
6.35
 74
    0
 49
-6.35
 74
    0
  0
LTYPE
  5
47
330
5
100
AcDbSymbolTableRecord
100
AcDbLinetypeTableRecord
  2
CENTERTINY
 70
    0
  3
Center (.15x) ___ _ ___ _ ___ _ ___ _ ___ _ ___
 72
   65
 73
    4
 40
7.619999999999999
 49
4.7625
 74
    0
 49
-0.9525
 74
    0
 49
0.9525
 74
    0
 49
-0.9525
 74
    0
  0
LTYPE
  5
48
330
5
100
AcDbSymbolTableRecord
100
AcDbLinetypeTableRecord
  2
CENTER2
 70
    0
  3
Center (.5x) ___ _ ___ _ ___ _ ___ _ ___ _ ___
 72
   65
 73
    4
 40
28.575
 49
19.05
 74
    0
 49
-3.175
 74
    0
 49
3.175
 74
    0
 49
-3.175
 74
    0
  0
LTYPE
  5
49
330
5
100
AcDbSymbolTableRecord
100
AcDbLinetypeTableRecord
  2
CENTERX2
 70
    0
  3
Center (2x) ________  __  ________  __  _____
 72
   65
 73
    4
 40
101.6
 49
63.5
 74
    0
 49
-12.7
 74
    0
 49
12.7
 74
    0
 49
-12.7
 74
    0
  0
ENDTAB
  0
TABLE
  2
LAYER
  5
2
330
0
100
AcDbSymbolTable
 70
    1
  0
LAYER
  5
10
330
2
100
AcDbSymbolTableRecord
100
AcDbLayerTableRecord
  2
0
 70
    0
 62
    7
  6
CONTINUOUS
370
    0
390
F
  0
LAYER
  5
4A
330
2
100
AcDbSymbolTableRecord
100
AcDbLayerTableRecord
  2
fill
 70
    0
 62
    7
  6
CONTINUOUS
370
    0
390
F
  0
ENDTAB
  0
TABLE
  2
STYLE
  5
3
330
0
100
AcDbSymbolTable
 70
    3
  0
STYLE
  5
4B
330
2
100
AcDbSymbolTableRecord
100
AcDbTextStyleTableRecord
  2
Standard
 70
    0
 40
0
 41
1
 50
0
 71
    0
 42
1
  3
txt
  4

  0
ENDTAB
  0
TABLE
  2
VIEW
  5
6
330
0
100
AcDbSymbolTable
 70
    0
  0
ENDTAB
  0
TABLE
  2
UCS
  5
7
330
0
100
AcDbSymbolTable
 70
    0
  0
ENDTAB
  0
TABLE
  2
APPID
  5
9
330
0
100
AcDbSymbolTable
 70
    1
  0
APPID
  5
12
330
9
100
AcDbSymbolTableRecord
100
AcDbRegAppTableRecord
  2
ACAD
 70
    0
  0
APPID
  5
4C
330
9
100
AcDbSymbolTableRecord
100
AcDbRegAppTableRecord
  2
LibreCad
 70
    0
  0
ENDTAB
  0
TABLE
  2
DIMSTYLE
  5
A
330
0
100
AcDbSymbolTable
 70
    1
100
AcDbDimStyleTable
 71
    1
  0
DIMSTYLE
105
4D
330
A
100
AcDbSymbolTableRecord
100
AcDbDimStyleTableRecord
  2
Standard
 70
    0
 40
2.5
 41
2.5
 42
0.625
 43
0.38
 44
1.25
 45
0
 46
0
 47
0
 48
0
 49
1
140
2.5
141
0.09
142
0
143
25.4
144
1
145
0
146
1
147
0.625
148
0
 71
    0
 72
    0
 73
    0
 74
    1
 75
    0
 76
    0
 77
    0
 78
    8
 79
    0
170
    0
171
    2
172
    0
173
    0
174
    0
175
    0
176
    0
177
    0
178
    0
179
    0
271
    2
272
    4
273
    2
274
    2
275
    0
276
    0
277
    2
278
   44
279
    0
280
    0
281
    0
282
    0
283
    1
284
    0
285
    0
286
    0
288
    0
289
    3
340
STANDARD
341

371
   -2
372
   -2
  0
ENDTAB
  0
TABLE
  2
BLOCK_RECORD
  5
1
330
0
100
AcDbSymbolTable
 70
    2
  0
BLOCK_RECORD
  5
1F
330
1
100
AcDbSymbolTableRecord
100
AcDbBlockTableRecord
  2
*Model_Space
 70
    0
280
    1
281
    0
  0
BLOCK_RECORD
  5
1E
330
1
100
AcDbSymbolTableRecord
100
AcDbBlockTableRecord
  2
*Paper_Space
 70
    0
280
    1
281
    0
  0
BLOCK_RECORD
  5
4E
330
1
100
AcDbSymbolTableRecord
100
AcDbBlockTableRecord
  2
16seg
 70
    0
280
    1
281
    0
  0
BLOCK_RECORD
  5
51
330
1
100
AcDbSymbolTableRecord
100
AcDbBlockTableRecord
  2
16seg-0
 70
    0
280
    1
281
    0
  0
BLOCK_RECORD
  5
54
330
1
100
AcDbSymbolTableRecord
100
AcDbBlockTableRecord
  2
16seg-1
 70
    0
280
    1
281
    0
  0
BLOCK_RECORD
  5
57
330
1
100
AcDbSymbolTableRecord
100
AcDbBlockTableRecord
  2
16seg-2
 70
    0
280
    1
281
    0
  0
BLOCK_RECORD
  5
5A
330
1
100
AcDbSymbolTableRecord
100
AcDbBlockTableRecord
  2
16seg-3
 70
    0
280
    1
281
    0
  0
BLOCK_RECORD
  5
5D
330
1
100
AcDbSymbolTableRecord
100
AcDbBlockTableRecord
  2
16seg-4
 70
    0
280
    1
281
    0
  0
BLOCK_RECORD
  5
60
330
1
100
AcDbSymbolTableRecord
100
AcDbBlockTableRecord
  2
16seg-5
 70
    0
280
    1
281
    0
  0
BLOCK_RECORD
  5
63
330
1
100
AcDbSymbolTableRecord
100
AcDbBlockTableRecord
  2
16seg-6
 70
    0
280
    1
281
    0
  0
ENDTAB
  0
ENDSEC
  0
SECTION
  2
BLOCKS
  0
BLOCK
  5
20
330
1F
100
AcDbEntity
  8
0
100
AcDbBlockBegin
  2
*Model_Space
 70
    0
 10
0
 20
0
 30
0
  3
*Model_Space
  1

  0
ENDBLK
  5
21
330
1F
100
AcDbEntity
  8
0
100
AcDbBlockEnd
  0
BLOCK
  5
1C
330
1B
100
AcDbEntity
  8
0
100
AcDbBlockBegin
  2
*Paper_Space
 70
    0
 10
0
 20
0
 30
0
  3
*Paper_Space
  1

  0
ENDBLK
  5
1D
330
1F
100
AcDbEntity
  8
0
100
AcDbBlockEnd
  0
BLOCK
  5
4F
330
4E
100
AcDbEntity
  8
0
100
AcDbBlockBegin
  2
16seg
 70
    0
 10
0
 20
0
  3
16seg
  1

  0
ENDBLK
  5
50
330
4E
100
AcDbEntity
  8
0
100
AcDbBlockEnd
  0
BLOCK
  5
52
330
51
100
AcDbEntity
  8
0
100
AcDbBlockBegin
  2
16seg-0
 70
    0
 10
0
 20
0
  3
16seg-0
  1

  0
ENDBLK
  5
53
330
51
100
AcDbEntity
  8
0
100
AcDbBlockEnd
  0
BLOCK
  5
55
330
54
100
AcDbEntity
  8
0
100
AcDbBlockBegin
  2
16seg-1
 70
    0
 10
0
 20
0
  3
16seg-1
  1

  0
ENDBLK
  5
56
330
54
100
AcDbEntity
  8
0
100
AcDbBlockEnd
  0
BLOCK
  5
58
330
57
100
AcDbEntity
  8
0
100
AcDbBlockBegin
  2
16seg-2
 70
    0
 10
0
 20
0
  3
16seg-2
  1

  0
ENDBLK
  5
59
330
57
100
AcDbEntity
  8
0
100
AcDbBlockEnd
  0
BLOCK
  5
5B
330
5A
100
AcDbEntity
  8
0
100
AcDbBlockBegin
  2
16seg-3
 70
    0
 10
0
 20
0
  3
16seg-3
  1

  0
ENDBLK
  5
5C
330
5A
100
AcDbEntity
  8
0
100
AcDbBlockEnd
  0
BLOCK
  5
5E
330
5D
100
AcDbEntity
  8
0
100
AcDbBlockBegin
  2
16seg-4
 70
    0
 10
0
 20
0
  3
16seg-4
  1

  0
ENDBLK
  5
5F
330
5D
100
AcDbEntity
  8
0
100
AcDbBlockEnd
  0
BLOCK
  5
61
330
60
100
AcDbEntity
  8
0
100
AcDbBlockBegin
  2
16seg-5
 70
    0
 10
0
 20
0
  3
16seg-5
  1

  0
ENDBLK
  5
62
330
60
100
AcDbEntity
  8
0
100
AcDbBlockEnd
  0
BLOCK
  5
64
330
63
100
AcDbEntity
  8
0
100
AcDbBlockBegin
  2
16seg-6
 70
    0
 10
0
 20
0
  3
16seg-6
  1

  0
ENDBLK
  5
65
330
63
100
AcDbEntity
  8
0
100
AcDbBlockEnd
  0
ENDSEC
  0
SECTION
  2
ENTITIES
  0
HATCH
  5
66
100
AcDbEntity
  8
fill
  6
ByLayer
 62
  256
370
   -1
100
AcDbHatch
 10
0
 20
0
 30
0
210
0
220
0
230
1
  2
SOLID
 70
    1
 71
    0
 91
    1
 92
    0
 93
    6
 72
    1
 10
173.8728262315253
 20
-0.7500000000000003
 11
165.8251358167828
 21
-0.7500000000000006
 72
    1
 10
165.8251358167828
 20
-0.7500000000000006
 11
165.2113248079208
 21
-0.01848852501486633
 72
    1
 10
165.2113248079208
 20
-0.01848852501486633
 11
166.1271737684747
 21
0.7499999999999994
 72
    1
 10
166.1271737684747
 20
0.7499999999999994
 11
174.1748641832172
 21
0.7499999999999997
 72
    1
 10
174.1748641832172
 20
0.7499999999999997
 11
174.7886751920792
 21
0.0184885250148663
 72
    1
 10
174.7886751920792
 20
0.0184885250148663
 11
173.8728262315253
 21
-0.7500000000000003
 97
    0
 75
    0
 76
    1
 98
    0
  0
HATCH
  5
67
100
AcDbEntity
  8
fill
  6
ByLayer
 62
  256
370
   -1
100
AcDbHatch
 10
0
 20
0
 30
0
210
0
220
0
230
1
  2
SOLID
 70
    1
 71
    0
 91
    1
 92
    0
 93
    6
 72
    1
 10
183.8728262315253
 20
-0.7499999999999999
 11
184.7886751920792
 21
0.01848852501486635
 72
    1
 10
184.7886751920792
 20
0.01848852501486635
 11
184.1748641832172
 21
0.7500000000000001
 72
    1
 10
184.1748641832172
 20
0.7500000000000001
 11
176.1271737684747
 21
0.7499999999999997
 72
    1
 10
176.1271737684747
 20
0.7499999999999997
 11
175.2113248079208
 21
-0.01848852501486396
 72
    1
 10
175.2113248079208
 20
-0.01848852501486396
 11
175.8251358167828
 21
-0.7500000000000003
 72
    1
 10
175.8251358167828
 20
-0.7500000000000003
 11
183.8728262315253
 21
-0.7499999999999999
 97
    0
 75
    0
 76
    1
 98
    0
  0
HATCH
  5
68
100
AcDbEntity
  8
fill
  6
ByLayer
 62
  256
370
   -1
100
AcDbHatch
 10
0
 20
0
 30
0
210
0
220
0
230
1
  2
SOLID
 70
    1
 71
    0
 91
    1
 92
    0
 93
    6
 72
    1
 10
186.4635633721818
 20
3.981202482155073
 11
185.9343374855688
 21
0.9798133329356954
 72
    1
 10
185.9343374855688
 20
0.9798133329356954
 11
185.0184885250149
 21
0.2113248079208301
 72
    1
 10
185.0184885250149
 20
0.2113248079208301
 11
184.4046775161529
 21
0.9428362829059626
 72
    1
 10
184.4046775161529
 20
0.9428362829059626
 11
184.9339034027659
 21
3.944225432125349
 72
    1
 10
184.9339034027659
 20
3.944225432125349
 11
185.8497523633198
 21
4.712713957140211
 72
    1
 10
185.8497523633198
 20
4.712713957140211
 11
186.4635633721818
 21
3.981202482155073
 97
    0
 75
    0
 76
    1
 98
    0
  0
HATCH
  5
69
100
AcDbEntity
  8
fill
  6
ByLayer
 62
  256
370
   -1
100
AcDbHatch
 10
0
 20
0
 30
0
210
0
220
0
230
1
  2
SOLID
 70
    1
 71
    0
 91
    1
 92
    0
 93
    6
 72
    1
 10
184.7410671198599
 20
4.17403876506104
 11
176.6933767051175
 21
4.17403876506104
 72
    1
 10
176.6933767051175
 20
4.17403876506104
 11
176.0795656962555
 21
4.905550240046175
 72
    1
 10
176.0795656962555
 20
4.905550240046175
 11
176.9954146568094
 21
5.67403876506104
 72
    1
 10
176.9954146568094
 20
5.67403876506104
 11
185.0431050715518
 21
5.67403876506104
 72
    1
 10
185.0431050715518
 20
5.67403876506104
 11
185.6569160804138
 21
4.942527290075904
 72
    1
 10
185.6569160804138
 20
4.942527290075904
 11
184.7410671198599
 21
4.17403876506104
 97
    0
 75
    0
 76
    1
 98
    0
  0
HATCH
  5
6A
100
AcDbEntity
  8
fill
  6
ByLayer
 62
  256
370
   -1
100
AcDbHatch
 10
0
 20
0
 30
0
210
0
220
0
230
1
  2
SOLID
 70
    1
 71
    0
 91
    1
 92
    0
 93
    6
 72
    1
 10
166.9954146568094
 20
5.67403876506104
 11
175.0431050715518
 21
5.67403876506104
 72
    1
 10
175.0431050715518
 20
5.67403876506104
 11
175.6569160804138
 21
4.942527290075905
 72
    1
 10
175.6569160804138
 20
4.942527290075905
 11
174.7410671198599
 21
4.17403876506104
 72
    1
 10
174.7410671198599
 20
4.17403876506104
 11
166.6933767051175
 21
4.17403876506104
 72
    1
 10
166.6933767051175
 20
4.17403876506104
 11
166.0795656962555
 21
4.905550240046174
 72
    1
 10
166.0795656962555
 20
4.905550240046174
 11
166.9954146568094
 21
5.67403876506104
 97
    0
 75
    0
 76
    1
 98
    0
  0
HATCH
  5
6B
100
AcDbEntity
  8
fill
  6
ByLayer
 62
  256
370
   -1
100
AcDbHatch
 10
0
 20
0
 30
0
210
0
220
0
230
1
  2
SOLID
 70
    1
 71
    0
 91
    1
 92
    0
 93
    6
 72
    1
 10
166.4635633721818
 20
3.981202482155076
 11
165.9343374855688
 21
0.9798133329356928
 72
    1
 10
165.9343374855688
 20
0.9798133329356928
 11
165.0184885250149
 21
0.2113248079208267
 72
    1
 10
165.0184885250149
 20
0.2113248079208267
 11
164.4046775161529
 21
0.9428362829059622
 72
    1
 10
164.4046775161529
 20
0.9428362829059622
 11
164.9339034027659
 21
3.944225432125348
 72
    1
 10
164.9339034027659
 20
3.944225432125348
 11
165.8497523633198
 21
4.712713957140211
 72
    1
 10
165.8497523633198
 20
4.712713957140211
 11
166.4635633721818
 21
3.981202482155076
 97
    0
 75
    0
 76
    1
 98
    0
  0
HATCH
  5
6C
100
AcDbEntity
  8
fill
  6
ByLayer
 62
  256
370
   -1
100
AcDbHatch
 10
0
 20
0
 30
0
210
0
220
0
230
1
  2
SOLID
 70
    1
 71
    0
 91
    1
 92
    0
 93
    6
 72
    1
 10
163.5364366278182
 20
-3.981202482155078
 11
164.0656625144312
 21
-0.9798133329356928
 72
    1
 10
164.0656625144312
 20
-0.9798133329356928
 11
164.9815114749851
 21
-0.2113248079208286
 72
    1
 10
164.9815114749851
 20
-0.2113248079208286
 11
165.5953224838471
 21
-0.9428362829059654
 72
    1
 10
165.5953224838471
 20
-0.9428362829059654
 11
165.0660965972341
 21
-3.944225432125347
 72
    1
 10
165.0660965972341
 20
-3.944225432125347
 11
164.1502476366802
 21
-4.712713957140211
 72
    1
 10
164.1502476366802
 20
-4.712713957140211
 11
163.5364366278182
 21
-3.981202482155078
 97
    0
 75
    0
 76
    1
 98
    0
  0
HATCH
  5
6D
100
AcDbEntity
  8
fill
  6
ByLayer
 62
  256
370
   -1
100
AcDbHatch
 10
0
 20
0
 30
0
210
0
220
0
230
1
  2
SOLID
 70
    1
 71
    0
 91
    1
 92
    0
 93
    6
 72
    1
 10
141.4635633721818
 20
3.981202482155076
 11
140.9343374855688
 21
0.9798133329356928
 72
    1
 10
140.9343374855688
 20
0.9798133329356928
 11
140.0184885250149
 21
0.2113248079208267
 72
    1
 10
140.0184885250149
 20
0.2113248079208267
 11
139.4046775161529
 21
0.9428362829059622
 72
    1
 10
139.4046775161529
 20
0.9428362829059622
 11
139.9339034027659
 21
3.944225432125348
 72
    1
 10
139.9339034027659
 20
3.944225432125348
 11
140.8497523633198
 21
4.712713957140211
 72
    1
 10
140.8497523633198
 20
4.712713957140211
 11
141.4635633721818
 21
3.981202482155076
 97
    0
 75
    0
 76
    1
 98
    0
  0
HATCH
  5
6E
100
AcDbEntity
  8
fill
  6
ByLayer
 62
  256
370
   -1
100
AcDbHatch
 10
0
 20
0
 30
0
210
0
220
0
230
1
  2
SOLID
 70
    1
 71
    0
 91
    1
 92
    0
 93
    6
 72
    1
 10
138.5364366278182
 20
-3.981202482155078
 11
139.0656625144312
 21
-0.9798133329356928
 72
    1
 10
139.0656625144312
 20
-0.9798133329356928
 11
139.9815114749851
 21
-0.2113248079208286
 72
    1
 10
139.9815114749851
 20
-0.2113248079208286
 11
140.5953224838471
 21
-0.9428362829059654
 72
    1
 10
140.5953224838471
 20
-0.9428362829059654
 11
140.0660965972341
 21
-3.944225432125347
 72
    1
 10
140.0660965972341
 20
-3.944225432125347
 11
139.1502476366802
 21
-4.712713957140211
 72
    1
 10
139.1502476366802
 20
-4.712713957140211
 11
138.5364366278182
 21
-3.981202482155078
 97
    0
 75
    0
 76
    1
 98
    0
  0
HATCH
  5
6F
100
AcDbEntity
  8
fill
  6
ByLayer
 62
  256
370
   -1
100
AcDbHatch
 10
0
 20
0
 30
0
210
0
220
0
230
1
  2
SOLID
 70
    1
 71
    0
 91
    1
 92
    0
 93
    6
 72
    1
 10
140.2589328801401
 20
-4.17403876506104
 11
148.3066232948825
 21
-4.17403876506104
 72
    1
 10
148.3066232948825
 20
-4.17403876506104
 11
148.9204343037445
 21
-4.905550240046173
 72
    1
 10
148.9204343037445
 20
-4.905550240046173
 11
148.0045853431906
 21
-5.67403876506104
 72
    1
 10
148.0045853431906
 20
-5.67403876506104
 11
139.9568949284482
 21
-5.67403876506104
 72
    1
 10
139.9568949284482
 20
-5.67403876506104
 11
139.3430839195862
 21
-4.942527290075905
 72
    1
 10
139.3430839195862
 20
-4.942527290075905
 11
140.2589328801401
 21
-4.17403876506104
 97
    0
 75
    0
 76
    1
 98
    0
  0
HATCH
  5
70
100
AcDbEntity
  8
fill
  6
ByLayer
 62
  256
370
   -1
100
AcDbHatch
 10
0
 20
0
 30
0
210
0
220
0
230
1
  2
SOLID
 70
    1
 71
    0
 91
    1
 92
    0
 93
    6
 72
    1
 10
158.0045853431906
 20
-5.67403876506104
 11
149.9568949284482
 21
-5.67403876506104
 72
    1
 10
149.9568949284482
 20
-5.67403876506104
 11
149.3430839195862
 21
-4.942527290075904
 72
    1
 10
149.3430839195862
 20
-4.942527290075904
 11
150.2589328801401
 21
-4.17403876506104
 72
    1
 10
150.2589328801401
 20
-4.17403876506104
 11
158.3066232948825
 21
-4.17403876506104
 72
    1
 10
158.3066232948825
 20
-4.17403876506104
 11
158.9204343037445
 21
-4.905550240046176
 72
    1
 10
158.9204343037445
 20
-4.905550240046176
 11
158.0045853431906
 21
-5.67403876506104
 97
    0
 75
    0
 76
    1
 98
    0
  0
HATCH
  5
71
100
AcDbEntity
  8
fill
  6
ByLayer
 62
  256
370
   -1
100
AcDbHatch
 10
0
 20
0
 30
0
210
0
220
0
230
1
  2
SOLID
 70
    1
 71
    0
 91
    1
 92
    0
 93
    6
 72
    1
 10
158.5364366278182
 20
-3.98120248215508
 11
159.0656625144312
 21
-0.9798133329356914
 72
    1
 10
159.0656625144312
 20
-0.9798133329356914
 11
159.9815114749851
 21
-0.2113248079208272
 72
    1
 10
159.9815114749851
 20
-0.2113248079208272
 11
160.5953224838471
 21
-0.9428362829059632
 72
    1
 10
160.5953224838471
 20
-0.9428362829059632
 11
160.0660965972341
 21
-3.944225432125347
 72
    1
 10
160.0660965972341
 20
-3.944225432125347
 11
159.1502476366802
 21
-4.712713957140213
 72
    1
 10
159.1502476366802
 20
-4.712713957140213
 11
158.5364366278182
 21
-3.98120248215508
 97
    0
 75
    0
 76
    1
 98
    0
  0
HATCH
  5
72
100
AcDbEntity
  8
fill
  6
ByLayer
 62
  256
370
   -1
100
AcDbHatch
 10
0
 20
0
 30
0
210
0
220
0
230
1
  2
SOLID
 70
    1
 71
    0
 91
    1
 92
    0
 93
    6
 72
    1
 10
161.4635633721818
 20
3.981202482155073
 11
160.9343374855688
 21
0.9798133329356954
 72
    1
 10
160.9343374855688
 20
0.9798133329356954
 11
160.0184885250149
 21
0.2113248079208301
 72
    1
 10
160.0184885250149
 20
0.2113248079208301
 11
159.4046775161529
 21
0.9428362829059626
 72
    1
 10
159.4046775161529
 20
0.9428362829059626
 11
159.9339034027659
 21
3.944225432125349
 72
    1
 10
159.9339034027659
 20
3.944225432125349
 11
160.8497523633198
 21
4.712713957140211
 72
    1
 10
160.8497523633198
 20
4.712713957140211
 11
161.4635633721818
 21
3.981202482155073
 97
    0
 75
    0
 76
    1
 98
    0
  0
HATCH
  5
73
100
AcDbEntity
  8
fill
  6
ByLayer
 62
  256
370
   -1
100
AcDbHatch
 10
0
 20
0
 30
0
210
0
220
0
230
1
  2
SOLID
 70
    1
 71
    0
 91
    1
 92
    0
 93
    6
 72
    1
 10
159.7410671198599
 20
4.17403876506104
 11
151.6933767051175
 21
4.17403876506104
 72
    1
 10
151.6933767051175
 20
4.17403876506104
 11
151.0795656962555
 21
4.905550240046175
 72
    1
 10
151.0795656962555
 20
4.905550240046175
 11
151.9954146568094
 21
5.67403876506104
 72
    1
 10
151.9954146568094
 20
5.67403876506104
 11
160.0431050715518
 21
5.67403876506104
 72
    1
 10
160.0431050715518
 20
5.67403876506104
 11
160.6569160804138
 21
4.942527290075904
 72
    1
 10
160.6569160804138
 20
4.942527290075904
 11
159.7410671198599
 21
4.17403876506104
 97
    0
 75
    0
 76
    1
 98
    0
  0
HATCH
  5
74
100
AcDbEntity
  8
fill
  6
ByLayer
 62
  256
370
   -1
100
AcDbHatch
 10
0
 20
0
 30
0
210
0
220
0
230
1
  2
SOLID
 70
    1
 71
    0
 91
    1
 92
    0
 93
    6
 72
    1
 10
141.9954146568094
 20
5.67403876506104
 11
150.0431050715518
 21
5.67403876506104
 72
    1
 10
150.0431050715518
 20
5.67403876506104
 11
150.6569160804138
 21
4.942527290075905
 72
    1
 10
150.6569160804138
 20
4.942527290075905
 11
149.7410671198599
 21
4.17403876506104
 72
    1
 10
149.7410671198599
 20
4.17403876506104
 11
141.6933767051175
 21
4.17403876506104
 72
    1
 10
141.6933767051175
 20
4.17403876506104
 11
141.0795656962555
 21
4.905550240046174
 72
    1
 10
141.0795656962555
 20
4.905550240046174
 11
141.9954146568094
 21
5.67403876506104
 97
    0
 75
    0
 76
    1
 98
    0
  0
HATCH
  5
75
100
AcDbEntity
  8
fill
  6
ByLayer
 62
  256
370
   -1
100
AcDbHatch
 10
0
 20
0
 30
0
210
0
220
0
230
1
  2
SOLID
 70
    1
 71
    0
 91
    1
 92
    0
 93
    6
 72
    1
 10
123.5364366278182
 20
-3.981202482155077
 11
124.1502476366802
 21
-4.712713957140211
 72
    1
 10
124.1502476366802
 20
-4.712713957140211
 11
125.0660965972341
 21
-3.944225432125344
 72
    1
 10
125.0660965972341
 20
-3.944225432125344
 11
125.5953224838471
 21
-0.9428362829059619
 72
    1
 10
125.5953224838471
 20
-0.9428362829059619
 11
124.9815114749851
 21
-0.2113248079208269
 72
    1
 10
124.9815114749851
 20
-0.2113248079208269
 11
124.0656625144312
 21
-0.9798133329356923
 72
    1
 10
124.0656625144312
 20
-0.9798133329356923
 11
123.5364366278182
 21
-3.981202482155077
 97
    0
 75
    0
 76
    1
 98
    0
  0
HATCH
  5
76
100
AcDbEntity
  8
fill
  6
ByLayer
 62
  256
370
   -1
100
AcDbHatch
 10
0
 20
0
 30
0
210
0
220
0
230
1
  2
SOLID
 70
    1
 71
    0
 91
    1
 92
    0
 93
    6
 72
    1
 10
126.4635633721818
 20
3.981202482155076
 11
125.8497523633198
 21
4.712713957140211
 72
    1
 10
125.8497523633198
 20
4.712713957140211
 11
124.9339034027659
 21
3.944225432125346
 72
    1
 10
124.9339034027659
 20
3.944225432125346
 11
124.4046775161529
 21
0.9428362829059648
 72
    1
 10
124.4046775161529
 20
0.9428362829059648
 11
125.0184885250149
 21
0.2113248079208293
 72
    1
 10
125.0184885250149
 20
0.2113248079208293
 11
125.9343374855688
 21
0.9798133329356945
 72
    1
 10
125.9343374855688
 20
0.9798133329356945
 11
126.4635633721818
 21
3.981202482155076
 97
    0
 75
    0
 76
    1
 98
    0
  0
HATCH
  5
77
100
AcDbEntity
  8
fill
  6
ByLayer
 62
  256
370
   -1
100
AcDbHatch
 10
0
 20
0
 30
0
210
0
220
0
230
1
  2
SOLID
 70
    1
 71
    0
 91
    1
 92
    0
 93
    6
 72
    1
 10
134.7410671198599
 20
4.17403876506104
 11
126.6933767051175
 21
4.17403876506104
 72
    1
 10
126.6933767051175
 20
4.17403876506104
 11
126.0795656962555
 21
4.905550240046175
 72
    1
 10
126.0795656962555
 20
4.905550240046175
 11
126.9954146568094
 21
5.67403876506104
 72
    1
 10
126.9954146568094
 20
5.67403876506104
 11
135.0431050715518
 21
5.67403876506104
 72
    1
 10
135.0431050715518
 20
5.67403876506104
 11
135.6569160804138
 21
4.942527290075904
 72
    1
 10
135.6569160804138
 20
4.942527290075904
 11
134.7410671198599
 21
4.17403876506104
 97
    0
 75
    0
 76
    1
 98
    0
  0
HATCH
  5
78
100
AcDbEntity
  8
fill
  6
ByLayer
 62
  256
370
   -1
100
AcDbHatch
 10
0
 20
0
 30
0
210
0
220
0
230
1
  2
SOLID
 70
    1
 71
    0
 91
    1
 92
    0
 93
    6
 72
    1
 10
116.9954146568094
 20
5.67403876506104
 11
125.0431050715518
 21
5.67403876506104
 72
    1
 10
125.0431050715518
 20
5.67403876506104
 11
125.6569160804138
 21
4.942527290075905
 72
    1
 10
125.6569160804138
 20
4.942527290075905
 11
124.7410671198599
 21
4.17403876506104
 72
    1
 10
124.7410671198599
 20
4.17403876506104
 11
116.6933767051175
 21
4.17403876506104
 72
    1
 10
116.6933767051175
 20
4.17403876506104
 11
116.0795656962555
 21
4.905550240046174
 72
    1
 10
116.0795656962555
 20
4.905550240046174
 11
116.9954146568094
 21
5.67403876506104
 97
    0
 75
    0
 76
    1
 98
    0
  0
HATCH
  5
79
100
AcDbEntity
  8
fill
  6
ByLayer
 62
  256
370
   -1
100
AcDbHatch
 10
0
 20
0
 30
0
210
0
220
0
230
1
  2
SOLID
 70
    1
 71
    0
 91
    1
 92
    0
 93
    6
 72
    1
 10
109.5516805919244
 20
3.504163298899603
 11
104.1348999400319
 21
1.05
 72
    1
 10
104.1348999400319
 20
1.05
 11
101.2513412722239
 21
1.05
 72
    1
 10
101.2513412722239
 20
1.05
 11
101.3165602964103
 21
1.419875466161436
 72
    1
 10
101.3165602964103
 20
1.419875466161436
 11
106.7333409483027
 21
3.87403876506104
 72
    1
 10
106.7333409483027
 20
3.87403876506104
 11
109.6168996161107
 21
3.87403876506104
 72
    1
 10
109.6168996161107
 20
3.87403876506104
 11
109.5516805919244
 21
3.504163298899603
 97
    0
 75
    0
 76
    1
 98
    0
  0
HATCH
  5
7A
100
AcDbEntity
  8
fill
  6
ByLayer
 62
  256
370
   -1
100
AcDbHatch
 10
0
 20
0
 30
0
210
0
220
0
230
1
  2
SOLID
 70
    1
 71
    0
 91
    1
 92
    0
 93
    6
 72
    1
 10
100.8364253146073
 20
-1.303105327100613
 11
100.8810546127362
 21
-1.05
 72
    1
 10
100.8810546127362
 20
-1.05
 11
103.5274702671922
 21
-1.05
 72
    1
 10
103.5274702671922
 20
-1.05
 11
108.2953337970581
 21
-3.620933437960424
 72
    1
 10
108.2953337970581
 20
-3.620933437960424
 11
108.2507044989292
 21
-3.87403876506104
 72
    1
 10
108.2507044989292
 20
-3.87403876506104
 11
105.6042888444731
 21
-3.87403876506104
 72
    1
 10
105.6042888444731
 20
-3.87403876506104
 11
100.8364253146073
 21
-1.303105327100613
 97
    0
 75
    0
 76
    1
 98
    0
  0
HATCH
  5
7B
100
AcDbEntity
  8
fill
  6
ByLayer
 62
  256
370
   -1
100
AcDbHatch
 10
0
 20
0
 30
0
210
0
220
0
230
1
  2
SOLID
 70
    1
 71
    0
 91
    1
 92
    0
 93
    6
 72
    1
 10
98.87282623152528
 20
-0.7500000000000003
 11
90.8251358167828
 21
-0.7500000000000006
 72
    1
 10
90.8251358167828
 20
-0.7500000000000006
 11
90.21132480792083
 21
-0.01848852501486633
 72
    1
 10
90.21132480792083
 20
-0.01848852501486633
 11
91.12717376847472
 21
0.7499999999999994
 72
    1
 10
91.12717376847472
 20
0.7499999999999994
 11
99.1748641832172
 21
0.7499999999999997
 72
    1
 10
99.1748641832172
 20
0.7499999999999997
 11
99.78867519207917
 21
0.0184885250148663
 72
    1
 10
99.78867519207917
 20
0.0184885250148663
 11
98.87282623152528
 21
-0.7500000000000003
 97
    0
 75
    0
 76
    1
 98
    0
  0
HATCH
  5
7C
100
AcDbEntity
  8
fill
  6
ByLayer
 62
  256
370
   -1
100
AcDbHatch
 10
0
 20
0
 30
0
210
0
220
0
230
1
  2
SOLID
 70
    1
 71
    0
 91
    1
 92
    0
 93
    6
 72
    1
 10
88.53643662781823
 20
-3.981202482155078
 11
89.06566251443124
 21
-0.9798133329356928
 72
    1
 10
89.06566251443124
 20
-0.9798133329356928
 11
89.98151147498513
 21
-0.2113248079208286
 72
    1
 10
89.98151147498513
 20
-0.2113248079208286
 11
90.59532248384711
 21
-0.9428362829059654
 72
    1
 10
90.59532248384711
 20
-0.9428362829059654
 11
90.06609659723411
 21
-3.944225432125347
 72
    1
 10
90.06609659723411
 20
-3.944225432125347
 11
89.15024763668021
 21
-4.712713957140211
 72
    1
 10
89.15024763668021
 20
-4.712713957140211
 11
88.53643662781823
 21
-3.981202482155078
 97
    0
 75
    0
 76
    1
 98
    0
  0
HATCH
  5
7D
100
AcDbEntity
  8
fill
  6
ByLayer
 62
  256
370
   -1
100
AcDbHatch
 10
0
 20
0
 30
0
210
0
220
0
230
1
  2
SOLID
 70
    1
 71
    0
 91
    1
 92
    0
 93
    6
 72
    1
 10
91.46356337218177
 20
3.981202482155076
 11
90.93433748556876
 21
0.9798133329356928
 72
    1
 10
90.93433748556876
 20
0.9798133329356928
 11
90.01848852501487
 21
0.2113248079208267
 72
    1
 10
90.01848852501487
 20
0.2113248079208267
 11
89.40467751615289
 21
0.9428362829059622
 72
    1
 10
89.40467751615289
 20
0.9428362829059622
 11
89.93390340276591
 21
3.944225432125348
 72
    1
 10
89.93390340276591
 20
3.944225432125348
 11
90.84975236331978
 21
4.712713957140211
 72
    1
 10
90.84975236331978
 20
4.712713957140211
 11
91.46356337218177
 21
3.981202482155076
 97
    0
 75
    0
 76
    1
 98
    0
  0
HATCH
  5
7E
100
AcDbEntity
  8
fill
  6
ByLayer
 62
  256
370
   -1
100
AcDbHatch
 10
0
 20
0
 30
0
210
0
220
0
230
1
  2
SOLID
 70
    1
 71
    0
 91
    1
 92
    0
 93
    6
 72
    1
 10
83.00458534319063
 20
-5.67403876506104
 11
74.95689492844815
 21
-5.67403876506104
 72
    1
 10
74.95689492844815
 20
-5.67403876506104
 11
74.34308391958618
 21
-4.942527290075904
 72
    1
 10
74.34308391958618
 20
-4.942527290075904
 11
75.25893288014007
 21
-4.17403876506104
 72
    1
 10
75.25893288014007
 20
-4.17403876506104
 11
83.30662329488254
 21
-4.17403876506104
 72
    1
 10
83.30662329488254
 20
-4.17403876506104
 11
83.92043430374451
 21
-4.905550240046176
 72
    1
 10
83.92043430374451
 20
-4.905550240046176
 11
83.00458534319063
 21
-5.67403876506104
 97
    0
 75
    0
 76
    1
 98
    0
  0
HATCH
  5
7F
100
AcDbEntity
  8
fill
  6
ByLayer
 62
  256
370
   -1
100
AcDbHatch
 10
0
 20
0
 30
0
210
0
220
0
230
1
  2
SOLID
 70
    1
 71
    0
 91
    1
 92
    0
 93
    6
 72
    1
 10
65.25893288014007
 20
-4.17403876506104
 11
73.30662329488254
 21
-4.17403876506104
 72
    1
 10
73.30662329488254
 20
-4.17403876506104
 11
73.92043430374451
 21
-4.905550240046173
 72
    1
 10
73.92043430374451
 20
-4.905550240046173
 11
73.00458534319063
 21
-5.67403876506104
 72
    1
 10
73.00458534319063
 20
-5.67403876506104
 11
64.95689492844815
 21
-5.67403876506104
 72
    1
 10
64.95689492844815
 20
-5.67403876506104
 11
64.34308391958618
 21
-4.942527290075905
 72
    1
 10
64.34308391958618
 20
-4.942527290075905
 11
65.25893288014007
 21
-4.17403876506104
 97
    0
 75
    0
 76
    1
 98
    0
  0
HATCH
  5
80
100
AcDbEntity
  8
fill
  6
ByLayer
 62
  256
370
   -1
100
AcDbHatch
 10
0
 20
0
 30
0
210
0
220
0
230
1
  2
SOLID
 70
    1
 71
    0
 91
    1
 92
    0
 93
    6
 72
    1
 10
63.53643662781823
 20
-3.981202482155078
 11
64.06566251443124
 21
-0.9798133329356928
 72
    1
 10
64.06566251443124
 20
-0.9798133329356928
 11
64.98151147498513
 21
-0.2113248079208286
 72
    1
 10
64.98151147498513
 20
-0.2113248079208286
 11
65.59532248384711
 21
-0.9428362829059654
 72
    1
 10
65.59532248384711
 20
-0.9428362829059654
 11
65.06609659723411
 21
-3.944225432125347
 72
    1
 10
65.06609659723411
 20
-3.944225432125347
 11
64.15024763668021
 21
-4.712713957140211
 72
    1
 10
64.15024763668021
 20
-4.712713957140211
 11
63.53643662781823
 21
-3.981202482155078
 97
    0
 75
    0
 76
    1
 98
    0
  0
HATCH
  5
81
100
AcDbEntity
  8
fill
  6
ByLayer
 62
  256
370
   -1
100
AcDbHatch
 10
0
 20
0
 30
0
210
0
220
0
230
1
  2
SOLID
 70
    1
 71
    0
 91
    1
 92
    0
 93
    6
 72
    1
 10
66.46356337218177
 20
3.981202482155076
 11
65.93433748556876
 21
0.9798133329356928
 72
    1
 10
65.93433748556876
 20
0.9798133329356928
 11
65.01848852501487
 21
0.2113248079208267
 72
    1
 10
65.01848852501487
 20
0.2113248079208267
 11
64.40467751615289
 21
0.9428362829059622
 72
    1
 10
64.40467751615289
 20
0.9428362829059622
 11
64.93390340276591
 21
3.944225432125348
 72
    1
 10
64.93390340276591
 20
3.944225432125348
 11
65.84975236331978
 21
4.712713957140211
 72
    1
 10
65.84975236331978
 20
4.712713957140211
 11
66.46356337218177
 21
3.981202482155076
 97
    0
 75
    0
 76
    1
 98
    0
  0
HATCH
  5
82
100
AcDbEntity
  8
fill
  6
ByLayer
 62
  256
370
   -1
100
AcDbHatch
 10
0
 20
0
 30
0
210
0
220
0
230
1
  2
SOLID
 70
    1
 71
    0
 91
    1
 92
    0
 93
    6
 72
    1
 10
66.99541465680937
 20
5.67403876506104
 11
75.04310507155185
 21
5.67403876506104
 72
    1
 10
75.04310507155185
 20
5.67403876506104
 11
75.65691608041382
 21
4.942527290075905
 72
    1
 10
75.65691608041382
 20
4.942527290075905
 11
74.74106711985993
 21
4.17403876506104
 72
    1
 10
74.74106711985993
 20
4.17403876506104
 11
66.69337670511746
 21
4.17403876506104
 72
    1
 10
66.69337670511746
 20
4.17403876506104
 11
66.07956569625549
 21
4.905550240046174
 72
    1
 10
66.07956569625549
 20
4.905550240046174
 11
66.99541465680937
 21
5.67403876506104
 97
    0
 75
    0
 76
    1
 98
    0
  0
HATCH
  5
83
100
AcDbEntity
  8
fill
  6
ByLayer
 62
  256
370
   -1
100
AcDbHatch
 10
0
 20
0
 30
0
210
0
220
0
230
1
  2
SOLID
 70
    1
 71
    0
 91
    1
 92
    0
 93
    6
 72
    1
 10
84.74106711985993
 20
4.17403876506104
 11
76.69337670511746
 21
4.17403876506104
 72
    1
 10
76.69337670511746
 20
4.17403876506104
 11
76.07956569625549
 21
4.905550240046175
 72
    1
 10
76.07956569625549
 20
4.905550240046175
 11
76.99541465680937
 21
5.67403876506104
 72
    1
 10
76.99541465680937
 20
5.67403876506104
 11
85.04310507155185
 21
5.67403876506104
 72
    1
 10
85.04310507155185
 20
5.67403876506104
 11
85.65691608041382
 21
4.942527290075904
 72
    1
 10
85.65691608041382
 20
4.942527290075904
 11
84.74106711985993
 21
4.17403876506104
 97
    0
 75
    0
 76
    1
 98
    0
  0
HATCH
  5
84
100
AcDbEntity
  8
fill
  6
ByLayer
 62
  256
370
   -1
100
AcDbHatch
 10
0
 20
0
 30
0
210
0
220
0
230
1
  2
SOLID
 70
    1
 71
    0
 91
    1
 92
    0
 93
    6
 72
    1
 10
58.53643662781824
 20
-3.98120248215508
 11
59.06566251443125
 21
-0.9798133329356914
 72
    1
 10
59.06566251443125
 20
-0.9798133329356914
 11
59.98151147498513
 21
-0.2113248079208272
 72
    1
 10
59.98151147498513
 20
-0.2113248079208272
 11
60.59532248384711
 21
-0.9428362829059632
 72
    1
 10
60.59532248384711
 20
-0.9428362829059632
 11
60.06609659723411
 21
-3.944225432125347
 72
    1
 10
60.06609659723411
 20
-3.944225432125347
 11
59.15024763668021
 21
-4.712713957140213
 72
    1
 10
59.15024763668021
 20
-4.712713957140213
 11
58.53643662781824
 21
-3.98120248215508
 97
    0
 75
    0
 76
    1
 98
    0
  0
HATCH
  5
85
100
AcDbEntity
  8
fill
  6
ByLayer
 62
  256
370
   -1
100
AcDbHatch
 10
0
 20
0
 30
0
210
0
220
0
230
1
  2
SOLID
 70
    1
 71
    0
 91
    1
 92
    0
 93
    6
 72
    1
 10
61.46356337218176
 20
3.981202482155073
 11
60.93433748556876
 21
0.9798133329356954
 72
    1
 10
60.93433748556876
 20
0.9798133329356954
 11
60.01848852501487
 21
0.2113248079208301
 72
    1
 10
60.01848852501487
 20
0.2113248079208301
 11
59.40467751615289
 21
0.9428362829059626
 72
    1
 10
59.40467751615289
 20
0.9428362829059626
 11
59.93390340276589
 21
3.944225432125349
 72
    1
 10
59.93390340276589
 20
3.944225432125349
 11
60.84975236331978
 21
4.712713957140211
 72
    1
 10
60.84975236331978
 20
4.712713957140211
 11
61.46356337218176
 21
3.981202482155073
 97
    0
 75
    0
 76
    1
 98
    0
  0
HATCH
  5
86
100
AcDbEntity
  8
fill
  6
ByLayer
 62
  256
370
   -1
100
AcDbHatch
 10
0
 20
0
 30
0
210
0
220
0
230
1
  2
SOLID
 70
    1
 71
    0
 91
    1
 92
    0
 93
    6
 72
    1
 10
58.87282623152528
 20
-0.7499999999999999
 11
59.78867519207917
 21
0.01848852501486635
 72
    1
 10
59.78867519207917
 20
0.01848852501486635
 11
59.1748641832172
 21
0.7500000000000001
 72
    1
 10
59.1748641832172
 20
0.7500000000000001
 11
51.12717376847472
 21
0.7499999999999997
 72
    1
 10
51.12717376847472
 20
0.7499999999999997
 11
50.21132480792083
 21
-0.01848852501486396
 72
    1
 10
50.21132480792083
 20
-0.01848852501486396
 11
50.8251358167828
 21
-0.7500000000000003
 72
    1
 10
50.8251358167828
 20
-0.7500000000000003
 11
58.87282623152528
 21
-0.7499999999999999
 97
    0
 75
    0
 76
    1
 98
    0
  0
HATCH
  5
87
100
AcDbEntity
  8
fill
  6
ByLayer
 62
  256
370
   -1
100
AcDbHatch
 10
0
 20
0
 30
0
210
0
220
0
230
1
  2
SOLID
 70
    1
 71
    0
 91
    1
 92
    0
 93
    6
 72
    1
 10
48.87282623152528
 20
-0.7500000000000003
 11
40.8251358167828
 21
-0.7500000000000006
 72
    1
 10
40.8251358167828
 20
-0.7500000000000006
 11
40.21132480792083
 21
-0.01848852501486633
 72
    1
 10
40.21132480792083
 20
-0.01848852501486633
 11
41.12717376847472
 21
0.7499999999999994
 72
    1
 10
41.12717376847472
 20
0.7499999999999994
 11
49.1748641832172
 21
0.7499999999999997
 72
    1
 10
49.1748641832172
 20
0.7499999999999997
 11
49.78867519207918
 21
0.0184885250148663
 72
    1
 10
49.78867519207918
 20
0.0184885250148663
 11
48.87282623152528
 21
-0.7500000000000003
 97
    0
 75
    0
 76
    1
 98
    0
  0
HATCH
  5
88
100
AcDbEntity
  8
fill
  6
ByLayer
 62
  256
370
   -1
100
AcDbHatch
 10
0
 20
0
 30
0
210
0
220
0
230
1
  2
SOLID
 70
    1
 71
    0
 91
    1
 92
    0
 93
    6
 72
    1
 10
59.74106711985993
 20
4.17403876506104
 11
51.69337670511746
 21
4.17403876506104
 72
    1
 10
51.69337670511746
 20
4.17403876506104
 11
51.07956569625548
 21
4.905550240046175
 72
    1
 10
51.07956569625548
 20
4.905550240046175
 11
51.99541465680937
 21
5.67403876506104
 72
    1
 10
51.99541465680937
 20
5.67403876506104
 11
60.04310507155185
 21
5.67403876506104
 72
    1
 10
60.04310507155185
 20
5.67403876506104
 11
60.65691608041382
 21
4.942527290075904
 72
    1
 10
60.65691608041382
 20
4.942527290075904
 11
59.74106711985993
 21
4.17403876506104
 97
    0
 75
    0
 76
    1
 98
    0
  0
HATCH
  5
89
100
AcDbEntity
  8
fill
  6
ByLayer
 62
  256
370
   -1
100
AcDbHatch
 10
0
 20
0
 30
0
210
0
220
0
230
1
  2
SOLID
 70
    1
 71
    0
 91
    1
 92
    0
 93
    6
 72
    1
 10
41.99541465680937
 20
5.67403876506104
 11
50.04310507155185
 21
5.67403876506104
 72
    1
 10
50.04310507155185
 20
5.67403876506104
 11
50.65691608041382
 21
4.942527290075905
 72
    1
 10
50.65691608041382
 20
4.942527290075905
 11
49.74106711985993
 21
4.17403876506104
 72
    1
 10
49.74106711985993
 20
4.17403876506104
 11
41.69337670511746
 21
4.17403876506104
 72
    1
 10
41.69337670511746
 20
4.17403876506104
 11
41.07956569625548
 21
4.905550240046174
 72
    1
 10
41.07956569625548
 20
4.905550240046174
 11
41.99541465680937
 21
5.67403876506104
 97
    0
 75
    0
 76
    1
 98
    0
  0
HATCH
  5
8A
100
AcDbEntity
  8
fill
  6
ByLayer
 62
  256
370
   -1
100
AcDbHatch
 10
0
 20
0
 30
0
210
0
220
0
230
1
  2
SOLID
 70
    1
 71
    0
 91
    1
 92
    0
 93
    6
 72
    1
 10
41.46356337218176
 20
3.981202482155076
 11
40.93433748556876
 21
0.9798133329356928
 72
    1
 10
40.93433748556876
 20
0.9798133329356928
 11
40.01848852501487
 21
0.2113248079208267
 72
    1
 10
40.01848852501487
 20
0.2113248079208267
 11
39.40467751615289
 21
0.9428362829059622
 72
    1
 10
39.40467751615289
 20
0.9428362829059622
 11
39.9339034027659
 21
3.944225432125348
 72
    1
 10
39.9339034027659
 20
3.944225432125348
 11
40.84975236331979
 21
4.712713957140211
 72
    1
 10
40.84975236331979
 20
4.712713957140211
 11
41.46356337218176
 21
3.981202482155076
 97
    0
 75
    0
 76
    1
 98
    0
  0
HATCH
  5
8B
100
AcDbEntity
  8
fill
  6
ByLayer
 62
  256
370
   -1
100
AcDbHatch
 10
0
 20
0
 30
0
210
0
220
0
230
1
  2
SOLID
 70
    1
 71
    0
 91
    1
 92
    0
 93
    6
 72
    1
 10
38.53643662781824
 20
-3.981202482155078
 11
39.06566251443124
 21
-0.9798133329356928
 72
    1
 10
39.06566251443124
 20
-0.9798133329356928
 11
39.98151147498513
 21
-0.2113248079208286
 72
    1
 10
39.98151147498513
 20
-0.2113248079208286
 11
40.59532248384711
 21
-0.9428362829059654
 72
    1
 10
40.59532248384711
 20
-0.9428362829059654
 11
40.06609659723411
 21
-3.944225432125347
 72
    1
 10
40.06609659723411
 20
-3.944225432125347
 11
39.15024763668021
 21
-4.712713957140211
 72
    1
 10
39.15024763668021
 20
-4.712713957140211
 11
38.53643662781824
 21
-3.981202482155078
 97
    0
 75
    0
 76
    1
 98
    0
  0
HATCH
  5
8C
100
AcDbEntity
  8
fill
  6
ByLayer
 62
  256
370
   -1
100
AcDbHatch
 10
0
 20
0
 30
0
210
0
220
0
230
1
  2
SOLID
 70
    1
 71
    0
 91
    1
 92
    0
 93
    6
 72
    1
 10
33.00458534319063
 20
-5.67403876506104
 11
24.95689492844815
 21
-5.67403876506104
 72
    1
 10
24.95689492844815
 20
-5.67403876506104
 11
24.34308391958617
 21
-4.942527290075904
 72
    1
 10
24.34308391958617
 20
-4.942527290075904
 11
25.25893288014007
 21
-4.17403876506104
 72
    1
 10
25.25893288014007
 20
-4.17403876506104
 11
33.30662329488254
 21
-4.17403876506104
 72
    1
 10
33.30662329488254
 20
-4.17403876506104
 11
33.92043430374451
 21
-4.905550240046176
 72
    1
 10
33.92043430374451
 20
-4.905550240046176
 11
33.00458534319063
 21
-5.67403876506104
 97
    0
 75
    0
 76
    1
 98
    0
  0
HATCH
  5
8D
100
AcDbEntity
  8
fill
  6
ByLayer
 62
  256
370
   -1
100
AcDbHatch
 10
0
 20
0
 30
0
210
0
220
0
230
1
  2
SOLID
 70
    1
 71
    0
 91
    1
 92
    0
 93
    6
 72
    1
 10
15.25893288014007
 20
-4.17403876506104
 11
23.30662329488255
 21
-4.17403876506104
 72
    1
 10
23.30662329488255
 20
-4.17403876506104
 11
23.92043430374452
 21
-4.905550240046173
 72
    1
 10
23.92043430374452
 20
-4.905550240046173
 11
23.00458534319063
 21
-5.67403876506104
 72
    1
 10
23.00458534319063
 20
-5.67403876506104
 11
14.95689492844815
 21
-5.67403876506104
 72
    1
 10
14.95689492844815
 20
-5.67403876506104
 11
14.34308391958617
 21
-4.942527290075905
 72
    1
 10
14.34308391958617
 20
-4.942527290075905
 11
15.25893288014007
 21
-4.17403876506104
 97
    0
 75
    0
 76
    1
 98
    0
  0
HATCH
  5
8E
100
AcDbEntity
  8
fill
  6
ByLayer
 62
  256
370
   -1
100
AcDbHatch
 10
0
 20
0
 30
0
210
0
220
0
230
1
  2
SOLID
 70
    1
 71
    0
 91
    1
 92
    0
 93
    6
 72
    1
 10
13.53643662781824
 20
-3.981202482155078
 11
14.06566251443124
 21
-0.9798133329356928
 72
    1
 10
14.06566251443124
 20
-0.9798133329356928
 11
14.98151147498513
 21
-0.2113248079208286
 72
    1
 10
14.98151147498513
 20
-0.2113248079208286
 11
15.59532248384711
 21
-0.9428362829059654
 72
    1
 10
15.59532248384711
 20
-0.9428362829059654
 11
15.06609659723411
 21
-3.944225432125347
 72
    1
 10
15.06609659723411
 20
-3.944225432125347
 11
14.15024763668021
 21
-4.712713957140211
 72
    1
 10
14.15024763668021
 20
-4.712713957140211
 11
13.53643662781824
 21
-3.981202482155078
 97
    0
 75
    0
 76
    1
 98
    0
  0
HATCH
  5
8F
100
AcDbEntity
  8
fill
  6
ByLayer
 62
  256
370
   -1
100
AcDbHatch
 10
0
 20
0
 30
0
210
0
220
0
230
1
  2
SOLID
 70
    1
 71
    0
 91
    1
 92
    0
 93
    6
 72
    1
 10
16.46356337218176
 20
3.981202482155076
 11
15.93433748556876
 21
0.9798133329356928
 72
    1
 10
15.93433748556876
 20
0.9798133329356928
 11
15.01848852501487
 21
0.2113248079208267
 72
    1
 10
15.01848852501487
 20
0.2113248079208267
 11
14.40467751615289
 21
0.9428362829059622
 72
    1
 10
14.40467751615289
 20
0.9428362829059622
 11
14.9339034027659
 21
3.944225432125348
 72
    1
 10
14.9339034027659
 20
3.944225432125348
 11
15.84975236331979
 21
4.712713957140211
 72
    1
 10
15.84975236331979
 20
4.712713957140211
 11
16.46356337218176
 21
3.981202482155076
 97
    0
 75
    0
 76
    1
 98
    0
  0
HATCH
  5
90
100
AcDbEntity
  8
fill
  6
ByLayer
 62
  256
370
   -1
100
AcDbHatch
 10
0
 20
0
 30
0
210
0
220
0
230
1
  2
SOLID
 70
    1
 71
    0
 91
    1
 92
    0
 93
    6
 72
    1
 10
-9.741067119859935
 20
-4.17403876506104
 11
-1.693376705117454
 21
-4.17403876506104
 72
    1
 10
-1.693376705117454
 20
-4.17403876506104
 11
-1.079565696255481
 21
-4.905550240046173
 72
    1
 10
-1.079565696255481
 20
-4.905550240046173
 11
-1.995414656809373
 21
-5.67403876506104
 72
    1
 10
-1.995414656809373
 20
-5.67403876506104
 11
-10.04310507155185
 21
-5.67403876506104
 72
    1
 10
-10.04310507155185
 20
-5.67403876506104
 11
-10.65691608041383
 21
-4.942527290075905
 72
    1
 10
-10.65691608041383
 20
-4.942527290075905
 11
-9.741067119859935
 21
-4.17403876506104
 97
    0
 75
    0
 76
    1
 98
    0
  0
HATCH
  5
91
100
AcDbEntity
  8
fill
  6
ByLayer
 62
  256
370
   -1
100
AcDbHatch
 10
0
 20
0
 30
0
210
0
220
0
230
1
  2
SOLID
 70
    1
 71
    0
 91
    1
 92
    0
 93
    6
 72
    1
 10
-1.46356337218176
 20
-3.981202482155077
 11
-0.8497523633197868
 21
-4.712713957140211
 72
    1
 10
-0.8497523633197868
 20
-4.712713957140211
 11
0.06609659723410521
 21
-3.944225432125344
 72
    1
 10
0.06609659723410521
 20
-3.944225432125344
 11
0.5953224838471081
 21
-0.9428362829059619
 72
    1
 10
0.5953224838471081
 20
-0.9428362829059619
 11
-0.01848852501486628
 21
-0.2113248079208269
 72
    1
 10
-0.01848852501486628
 20
-0.2113248079208269
 11
-0.9343374855687576
 21
-0.9798133329356923
 72
    1
 10
-0.9343374855687576
 20
-0.9798133329356923
 11
-1.46356337218176
 21
-3.981202482155077
 97
    0
 75
    0
 76
    1
 98
    0
  0
HATCH
  5
92
100
AcDbEntity
  8
fill
  6
ByLayer
 62
  256
370
   -1
100
AcDbHatch
 10
0
 20
0
 30
0
210
0
220
0
230
1
  2
SOLID
 70
    1
 71
    0
 91
    1
 92
    0
 93
    6
 72
    1
 10
8.00458534319063
 20
-5.67403876506104
 11
-0.04310507155185039
 21
-5.67403876506104
 72
    1
 10
-0.04310507155185039
 20
-5.67403876506104
 11
-0.6569160804138257
 21
-4.942527290075904
 72
    1
 10
-0.6569160804138257
 20
-4.942527290075904
 11
0.2589328801400654
 21
-4.17403876506104
 72
    1
 10
0.2589328801400654
 20
-4.17403876506104
 11
8.306623294882543
 21
-4.17403876506104
 72
    1
 10
8.306623294882543
 20
-4.17403876506104
 11
8.920434303744518
 21
-4.905550240046176
 72
    1
 10
8.920434303744518
 20
-4.905550240046176
 11
8.00458534319063
 21
-5.67403876506104
 97
    0
 75
    0
 76
    1
 98
    0
  0
HATCH
  5
93
100
AcDbEntity
  8
fill
  6
ByLayer
 62
  256
370
   -1
100
AcDbHatch
 10
0
 20
0
 30
0
210
0
220
0
230
1
  2
SOLID
 70
    1
 71
    0
 91
    1
 92
    0
 93
    6
 72
    1
 10
8.53643662781824
 20
-3.98120248215508
 11
9.065662514431244
 21
-0.9798133329356914
 72
    1
 10
9.065662514431244
 20
-0.9798133329356914
 11
9.981511474985133
 21
-0.2113248079208272
 72
    1
 10
9.981511474985133
 20
-0.2113248079208272
 11
10.59532248384711
 21
-0.9428362829059632
 72
    1
 10
10.59532248384711
 20
-0.9428362829059632
 11
10.06609659723411
 21
-3.944225432125347
 72
    1
 10
10.06609659723411
 20
-3.944225432125347
 11
9.150247636680215
 21
-4.712713957140213
 72
    1
 10
9.150247636680215
 20
-4.712713957140213
 11
8.53643662781824
 21
-3.98120248215508
 97
    0
 75
    0
 76
    1
 98
    0
  0
HATCH
  5
94
100
AcDbEntity
  8
fill
  6
ByLayer
 62
  256
370
   -1
100
AcDbHatch
 10
0
 20
0
 30
0
210
0
220
0
230
1
  2
SOLID
 70
    1
 71
    0
 91
    1
 92
    0
 93
    6
 72
    1
 10
8.872826231525279
 20
-0.7499999999999999
 11
9.788675192079172
 21
0.01848852501486635
 72
    1
 10
9.788675192079172
 20
0.01848852501486635
 11
9.174864183217199
 21
0.7500000000000001
 72
    1
 10
9.174864183217199
 20
0.7500000000000001
 11
1.127173768474718
 21
0.7499999999999997
 72
    1
 10
1.127173768474718
 20
0.7499999999999997
 11
0.2113248079208287
 21
-0.01848852501486396
 72
    1
 10
0.2113248079208287
 20
-0.01848852501486396
 11
0.8251358167828042
 21
-0.7500000000000003
 72
    1
 10
0.8251358167828042
 20
-0.7500000000000003
 11
8.872826231525279
 21
-0.7499999999999999
 97
    0
 75
    0
 76
    1
 98
    0
  0
HATCH
  5
95
100
AcDbEntity
  8
fill
  6
ByLayer
 62
  256
370
   -1
100
AcDbHatch
 10
0
 20
0
 30
0
210
0
220
0
230
1
  2
SOLID
 70
    1
 71
    0
 91
    1
 92
    0
 93
    6
 72
    1
 10
11.46356337218176
 20
3.981202482155073
 11
10.93433748556876
 21
0.9798133329356954
 72
    1
 10
10.93433748556876
 20
0.9798133329356954
 11
10.01848852501487
 21
0.2113248079208301
 72
    1
 10
10.01848852501487
 20
0.2113248079208301
 11
9.404677516152892
 21
0.9428362829059626
 72
    1
 10
9.404677516152892
 20
0.9428362829059626
 11
9.933903402765896
 21
3.944225432125349
 72
    1
 10
9.933903402765896
 20
3.944225432125349
 11
10.84975236331978
 21
4.712713957140211
 72
    1
 10
10.84975236331978
 20
4.712713957140211
 11
11.46356337218176
 21
3.981202482155073
 97
    0
 75
    0
 76
    1
 98
    0
  0
HATCH
  5
96
100
AcDbEntity
  8
fill
  6
ByLayer
 62
  256
370
   -1
100
AcDbHatch
 10
0
 20
0
 30
0
210
0
220
0
230
1
  2
SOLID
 70
    1
 71
    0
 91
    1
 92
    0
 93
    6
 72
    1
 10
9.741067119859935
 20
4.17403876506104
 11
1.693376705117456
 21
4.17403876506104
 72
    1
 10
1.693376705117456
 20
4.17403876506104
 11
1.079565696255481
 21
4.905550240046175
 72
    1
 10
1.079565696255481
 20
4.905550240046175
 11
1.995414656809373
 21
5.67403876506104
 72
    1
 10
1.995414656809373
 20
5.67403876506104
 11
10.04310507155185
 21
5.67403876506104
 72
    1
 10
10.04310507155185
 20
5.67403876506104
 11
10.65691608041382
 21
4.942527290075904
 72
    1
 10
10.65691608041382
 20
4.942527290075904
 11
9.741067119859935
 21
4.17403876506104
 97
    0
 75
    0
 76
    1
 98
    0
  0
HATCH
  5
97
100
AcDbEntity
  8
fill
  6
ByLayer
 62
  256
370
   -1
100
AcDbHatch
 10
0
 20
0
 30
0
210
0
220
0
230
1
  2
SOLID
 70
    1
 71
    0
 91
    1
 92
    0
 93
    6
 72
    1
 10
1.463563372181761
 20
3.981202482155076
 11
0.8497523633197863
 21
4.712713957140211
 72
    1
 10
0.8497523633197863
 20
4.712713957140211
 11
-0.06609659723410544
 21
3.944225432125346
 72
    1
 10
-0.06609659723410544
 20
3.944225432125346
 11
-0.5953224838471077
 21
0.9428362829059648
 72
    1
 10
-0.5953224838471077
 20
0.9428362829059648
 11
0.01848852501486709
 21
0.2113248079208293
 72
    1
 10
0.01848852501486709
 20
0.2113248079208293
 11
0.9343374855687577
 21
0.9798133329356945
 72
    1
 10
0.9343374855687577
 20
0.9798133329356945
 11
1.463563372181761
 21
3.981202482155076
 97
    0
 75
    0
 76
    1
 98
    0
  0
HATCH
  5
98
100
AcDbEntity
  8
fill
  6
ByLayer
 62
  256
370
   -1
100
AcDbHatch
 10
0
 20
0
 30
0
210
0
220
0
230
1
  2
SOLID
 70
    1
 71
    0
 91
    1
 92
    0
 93
    6
 72
    1
 10
-8.004585343190628
 20
5.67403876506104
 11
0.04310507155185039
 21
5.67403876506104
 72
    1
 10
0.04310507155185039
 20
5.67403876506104
 11
0.6569160804138248
 21
4.942527290075905
 72
    1
 10
0.6569160804138248
 20
4.942527290075905
 11
-0.2589328801400654
 21
4.17403876506104
 72
    1
 10
-0.2589328801400654
 20
4.17403876506104
 11
-8.306623294882545
 21
4.17403876506104
 72
    1
 10
-8.306623294882545
 20
4.17403876506104
 11
-8.92043430374452
 21
4.905550240046174
 72
    1
 10
-8.92043430374452
 20
4.905550240046174
 11
-8.004585343190628
 21
5.67403876506104
 97
    0
 75
    0
 76
    1
 98
    0
  0
ENDSEC
  0
SECTION
  2
OBJECTS
  0
DICTIONARY
  5
C
330
0
100
AcDbDictionary
281
    1
  3
ACAD_GROUP
350
D
  0
DICTIONARY
  5
D
330
C
100
AcDbDictionary
281
    1
  0
ENDSEC
  0
EOF
